<svg width="137" height="48" viewBox="0 0 137 48" fill="none" xmlns="http://www.w3.org/2000/svg">
<path fill-rule="evenodd" clip-rule="evenodd" d="M64.2734 8.25682C64.2734 6.91574 63.3051 6.25013 62.4112 6.25013C61.5173 6.25013 60.563 6.92559 60.563 8.25682V8.26807C60.563 9.5993 61.5117 10.2846 62.4084 10.286C62.868 10.286 63.3318 10.1059 63.6817 9.7752C64.0303 9.44591 64.2706 8.94776 64.2734 8.2737V8.25682ZM65.7337 8.25682V8.26807C65.7337 10.3409 64.1245 11.5469 62.5447 11.5469C62.0443 11.5441 61.551 11.423 61.1013 11.2035C60.92 11.1163 60.7485 11.0093 60.5911 10.8841V13.5226H59.18V5.12155L60.5911 5.12577V5.64081C60.7485 5.51557 60.92 5.40721 61.1013 5.32137C61.551 5.10185 62.0443 4.98646 62.5447 4.98223C64.1245 4.98223 65.7337 6.18821 65.7337 8.25822V8.25682ZM50.116 8.25682C50.116 7.03254 49.2221 6.25013 48.1708 6.25013C47.1195 6.25013 46.2327 7.03254 46.2327 8.25682V8.26807C46.2327 9.49516 47.1238 10.2874 48.1708 10.2874C49.2179 10.2874 50.116 9.49516 50.116 8.26807V8.25682ZM51.5693 8.25682V8.26807C51.5693 10.21 50.0092 11.5497 48.1708 11.5497C46.3325 11.5497 44.7738 10.2185 44.7738 8.26807V8.25682C44.7738 6.31486 46.3325 4.98083 48.1708 4.98083C50.0092 4.98083 51.5693 6.31909 51.5693 8.25682ZM56.7246 8.61706C56.7246 9.17573 56.5672 9.58382 56.3226 9.84837C56.1891 9.98769 56.0275 10.0974 55.849 10.1692C55.6705 10.241 55.4779 10.2748 55.284 10.2663H55.2784H55.2727C55.083 10.2748 54.8933 10.2438 54.7162 10.1777C54.5391 10.1115 54.3774 10.0102 54.2411 9.87933C53.9966 9.62885 53.8321 9.23624 53.8321 8.66772V5.12436H52.428V8.838C52.428 9.65981 52.674 10.3367 53.1336 10.8151C53.5946 11.295 54.251 11.5483 55.0085 11.5483C55.6803 11.5483 56.2819 11.3527 56.7246 11.015V11.4062H58.1357V5.12436H56.726V8.61566L56.7246 8.61706ZM42.2242 5.71258V5.12436H40.8202L40.8174 11.4062H42.2214V8.1569C42.2214 7.58135 42.4098 7.16763 42.7007 6.88478C43.038 6.58646 43.4765 6.43025 43.9263 6.44855H43.9291H44.4716V5.06245H44.0809C43.381 5.06245 42.7021 5.30589 42.2257 5.71258H42.2242ZM27.8307 8.25682C27.8307 7.03254 26.9368 6.25013 25.8869 6.25013C24.837 6.25013 23.9488 7.03254 23.9488 8.25682V8.26807C23.9488 9.49516 24.8398 10.2874 25.8869 10.2874C26.934 10.2874 27.8307 9.49516 27.8307 8.26807V8.25682ZM29.2854 8.25682V8.26807C29.2854 10.21 27.7253 11.5497 25.8869 11.5497C24.0486 11.5497 22.4941 10.2171 22.4941 8.26807V8.25682C22.4941 6.31486 24.05 4.98083 25.8869 4.98083C27.7239 4.98083 29.2854 6.31909 29.2854 8.25682ZM13.0956 8.25682C13.0956 7.03254 12.2018 6.25013 11.1519 6.25013C10.102 6.25013 9.21371 7.03254 9.21371 8.25682V8.26807C9.21371 9.49516 10.1048 10.2874 11.1519 10.2874C12.1989 10.2874 13.0956 9.49516 13.0956 8.26807V8.25682ZM14.5503 8.25682V8.26807C14.5503 10.21 12.9888 11.5497 11.1519 11.5497C9.3149 11.5497 7.75903 10.2171 7.75903 8.26807V8.25682C7.75903 6.31486 9.3149 4.98083 11.1519 4.98083C12.9888 4.98083 14.5503 6.31909 14.5503 8.25682ZM20.615 5.21865H22.1807V6.49921H20.6136V9.02797C20.6136 9.29675 20.6262 9.57537 20.7316 9.78646C20.7822 9.88777 20.8525 9.9708 20.9537 10.0299C21.0549 10.089 21.1968 10.1298 21.3964 10.1298H22.0528V11.4047H21.3964C20.8581 11.4047 20.2214 11.34 19.7422 10.8067C19.5117 10.5506 19.3753 10.317 19.2994 10.0454C19.225 9.77801 19.2095 9.4825 19.2095 9.10959V6.4978H17.2938V9.02656C17.2938 9.29534 17.3065 9.57397 17.4119 9.78505C17.4625 9.88637 17.5328 9.96939 17.6339 10.0285C17.7351 10.0876 17.8771 10.1284 18.0767 10.1284H18.733V11.4033H18.0767C17.5384 11.4033 16.9017 11.3386 16.4224 10.8053C16.1919 10.5492 16.0556 10.3156 15.9797 10.044C15.9052 9.77661 15.8897 9.48109 15.8897 9.10818V6.49639H14.9635V5.21583H15.8897V4H17.2938V5.21865H19.2081V4H20.6122V5.21865H20.615Z" fill="#EB001F"/>
<path d="M36.0867 11.378C35.6257 11.378 35.2013 11.2978 34.8133 11.1374C34.4254 10.977 34.0923 10.7532 33.814 10.4647C33.5358 10.1777 33.3179 9.83713 33.1605 9.44311C33.0045 9.04909 32.9258 8.61989 32.9258 8.1527C32.9258 7.6855 33.0045 7.2563 33.1605 6.86228C33.3165 6.46827 33.5344 6.12772 33.814 5.84065C34.0923 5.55358 34.4254 5.32983 34.8133 5.168C35.2013 5.00758 35.6243 4.92737 36.0867 4.92737C36.3228 4.92737 36.5463 4.95129 36.7543 4.99914C36.9623 5.04698 37.1563 5.11312 37.3348 5.19474C37.5133 5.27776 37.6735 5.37627 37.8169 5.49025C37.9588 5.60424 38.0811 5.72807 38.1809 5.86035V5.10749H39.71V10.5858C39.71 11.1599 39.6229 11.6581 39.4486 12.0802C39.2743 12.5024 39.0326 12.85 38.7262 13.123C38.4198 13.396 38.0572 13.5986 37.6398 13.7323C37.2223 13.8646 36.7712 13.9307 36.2849 13.9307C35.5864 13.9307 34.9581 13.8224 34.3973 13.6056C33.8379 13.3889 33.3713 13.0793 32.9975 12.6769L33.8998 11.6341C34.0769 11.803 34.2526 11.9494 34.4296 12.0746C34.6067 12.1984 34.788 12.304 34.975 12.3884C35.1619 12.4728 35.3545 12.5362 35.5554 12.5784C35.7564 12.6206 35.9686 12.6417 36.1935 12.6417C36.4578 12.6417 36.7107 12.6051 36.9497 12.5333C37.1886 12.4616 37.3994 12.3462 37.5821 12.19C37.7649 12.0338 37.9096 11.834 38.0178 11.5933C38.1261 11.3527 38.1809 11.0628 38.1809 10.7251V10.4422C38.0811 10.5745 37.9588 10.6983 37.8169 10.8123C37.6749 10.9263 37.5133 11.0262 37.3348 11.1107C37.1563 11.1951 36.9623 11.2598 36.7543 11.3063C36.5463 11.3527 36.3228 11.3752 36.0867 11.3752V11.378ZM36.4058 10.0876C36.6672 10.0876 36.9117 10.0426 37.1408 9.95252C37.3699 9.86246 37.5681 9.7344 37.7367 9.56695C37.9054 9.4009 38.0389 9.19685 38.1373 8.95762C38.2357 8.7184 38.2849 8.45103 38.2849 8.1527C38.2849 7.85437 38.2357 7.587 38.1373 7.34777C38.0389 7.10855 37.9054 6.90591 37.7367 6.73986C37.5681 6.5724 37.3699 6.44575 37.1408 6.3571C36.9117 6.26844 36.6672 6.22482 36.4058 6.22482C36.1443 6.22482 35.8942 6.26844 35.6651 6.3571C35.436 6.44575 35.2378 6.5724 35.0691 6.73986C34.9005 6.90591 34.7684 7.10995 34.6714 7.34777C34.5744 7.587 34.5266 7.85437 34.5266 8.1527C34.5266 8.45103 34.5744 8.7184 34.6714 8.95762C34.7684 9.19685 34.9005 9.39949 35.0691 9.56695C35.2378 9.7344 35.436 9.86246 35.6651 9.95252C35.8942 10.0426 36.1401 10.0876 36.4058 10.0876Z" fill="#EB001F"/>
<path d="M75.1617 43.7566C71.1842 43.7566 67.7576 42.3311 65.5117 39.7432C63.3514 37.2539 62.4477 33.8597 62.9663 30.184C63.9305 23.2873 69.641 18.469 76.8539 18.469C80.9846 18.469 84.48 19.8945 86.6979 22.4838C88.6642 24.7789 89.4653 27.8804 88.9523 31.2155C88.8764 31.746 88.7555 32.4947 88.5489 33.1068H69.6002L69.6621 33.4403C70.2242 36.4644 72.4786 38.2685 75.6916 38.2685C77.7843 38.2685 79.7042 37.403 80.8581 35.9452H87.8405C86.8511 38.2206 85.2488 40.1302 83.1884 41.4854C80.9284 42.9714 78.1526 43.7566 75.1603 43.7566H75.1617ZM76.6122 23.9571C73.7843 23.9571 71.3318 25.7316 70.2102 28.5897L70.0598 28.9738H82.3999L82.3535 28.653C81.9403 25.7569 79.7408 23.9585 76.6122 23.9585V23.9571Z" fill="#EB001F"/>
<path d="M115.839 43.8059C110.917 43.8059 106.664 42.0285 103.865 38.8018C101.146 35.6694 100.007 31.3942 100.659 26.7631C101.801 18.538 109.097 12.335 117.631 12.335C122.577 12.335 126.846 14.1235 129.652 17.3714C132.359 20.5052 133.482 24.7677 132.813 29.3763C131.627 37.6029 124.33 43.8059 115.841 43.8059H115.839ZM117.228 18.4662C112.269 18.4662 107.974 22.2305 107.236 27.2219C106.833 30.1165 107.539 32.7761 109.221 34.7124C110.881 36.622 113.359 37.6732 116.198 37.6732C121.182 37.6732 125.496 33.9089 126.234 28.9175C126.638 26.0271 125.934 23.3717 124.253 21.4382C122.587 19.5216 120.092 18.4662 117.228 18.4662Z" fill="#EB001F"/>
<path d="M50.5021 43.1444L52.3362 29.9531C52.5372 28.3433 52.1549 26.8488 51.261 25.7428C50.4585 24.7507 49.2863 24.14 47.9596 24.0246C47.753 24.0063 47.5492 23.9978 47.3496 23.9992C44.4613 24.0105 42.4473 25.9876 41.9624 29.2847L40.0706 43.188L33.5801 43.2147L35.7277 27.7424C36.2688 23.5081 40.2983 20.0872 43.8148 19.0177C44.9532 18.6715 46.1676 18.4928 47.4227 18.4872C49.7136 18.4773 51.8949 19.0458 53.7291 20.1308C57.5267 22.3767 59.4016 25.7174 58.8745 29.296L56.9926 43.1176L50.5021 43.1444Z" fill="#EB001F"/>
<path d="M94.7316 43.8128C92.8089 43.8128 91.2432 42.2466 91.2432 40.3201C91.2432 38.3936 92.8075 36.8274 94.7316 36.8274C96.6557 36.8274 98.22 38.3936 98.22 40.3201C98.22 42.2466 96.6557 43.8128 94.7316 43.8128Z" fill="#EB001F"/>
<path d="M14.3449 36.8781C13.8924 36.5938 13.4862 36.2476 13.1362 35.8438C12.0287 34.5646 11.5677 32.8155 11.839 30.9157C12.3435 27.5778 15.2079 25.0617 18.4995 25.0617C18.9858 25.0617 19.4553 25.1082 19.905 25.1982L20.8579 18.9038C20.2648 18.8334 19.6548 18.7982 19.0322 18.7982C15.6183 18.7982 12.3548 19.9437 9.84459 22.025C7.25288 24.1724 5.62814 27.1078 5.14466 30.5118C4.62604 34.1917 5.53117 37.5901 7.6942 40.0823C9.14185 41.7513 11.0786 42.9347 13.3344 43.5623L14.3463 36.8781H14.3449Z" fill="#EB001F"/>
<path d="M19.6054 27.1852C21.8275 27.0558 23.1191 26.4563 24.0524 25.1645C24.9407 23.9346 25.4775 22.0616 26.013 19.2078H32.3293C31.954 21.9856 30.8423 30.2389 30.5471 32.6438C30.0355 36.8275 28.3419 39.9064 25.5169 41.7935C23.3595 43.2345 20.661 43.9395 17.0615 44L18.0046 37.7647C19.7994 37.6394 21.1444 37.2707 22.0847 36.6417C22.7748 36.1801 23.7502 35.295 24.2365 32.9478L24.3363 32.4651L23.8697 32.6241C22.4656 33.104 20.4881 33.3643 18.6638 33.3995L19.604 27.1838L19.6054 27.1852Z" fill="#EB001F"/>
</svg>
